# xmcd
#
# Track frame offsets:
#	150
#	22279
#	37798
#	55578
#	71097
#	88583
#	105858
#	129186
#	148185
#	169943
#
# Disc length: 2500 seconds
# Revision: 0
# Processed by: cddbd v1.5.2PL0 Copyright (c) Steve Scherf et al.
# Submitted via: dBpowerAMP V12.0
#
DISCID=7f09c20a
DTITLE=Brian Ashley Jones - Out Of The City
DYEAR=2013
DGENRE=Folk
TTITLE0=See You Wasting Time
TTITLE1=Fetch A Pail (Duet With Jonell Mosser)
TTITLE2=You Have Set You Free
TTITLE3=Out Of The City
TTITLE4=Would You Come If I Go
TTITLE5=Free To Miss You
TTITLE6=Meet Me In The River
TTITLE7=Carolina's Dream
TTITLE8=River Bones
TTITLE9=Would You Come If I Go (Acoustic Version)
EXTD=
EXTT0=
EXTT1=
EXTT2=
EXTT3=
EXTT4=
EXTT5=
EXTT6=
EXTT7=
EXTT8=
EXTT9=
PLAYORDER=
